<?xml version="1.0" standalone="no"?><!DOCTYPE svg PUBLIC "-//W3C//DTD SVG 1.1//EN" "http://www.w3.org/Graphics/SVG/1.1/DTD/svg11.dtd"><svg t="1567738298193" class="icon" viewBox="0 0 1024 1024" version="1.1" xmlns="http://www.w3.org/2000/svg" p-id="4668" xmlns:xlink="http://www.w3.org/1999/xlink" width="128" height="128"><defs><style type="text/css"></style></defs><path d="M128 384a42.666667 42.666667 0 0 0 42.666667-42.666667V213.333333a42.666667 42.666667 0 0 1 42.666666-42.666666h128a42.666667 42.666667 0 0 0 0-85.333334H213.333333a128 128 0 0 0-128 128v128a42.666667 42.666667 0 0 0 42.666667 42.666667z m213.333333 469.333333H213.333333a42.666667 42.666667 0 0 1-42.666666-42.666666v-128a42.666667 42.666667 0 0 0-85.333334 0v128a128 128 0 0 0 128 128h128a42.666667 42.666667 0 0 0 0-85.333334z m170.666667-512a170.666667 170.666667 0 1 0 170.666667 170.666667 170.666667 170.666667 0 0 0-170.666667-170.666667z m0 256a85.333333 85.333333 0 1 1 85.333333-85.333333 85.333333 85.333333 0 0 1-85.333333 85.333333z m298.666667-512h-128a42.666667 42.666667 0 0 0 0 85.333334h128a42.666667 42.666667 0 0 1 42.666666 42.666666v128a42.666667 42.666667 0 0 0 85.333334 0V213.333333a128 128 0 0 0-128-128z m85.333333 554.666667a42.666667 42.666667 0 0 0-42.666667 42.666667v128a42.666667 42.666667 0 0 1-42.666666 42.666666h-128a42.666667 42.666667 0 0 0 0 85.333334h128a128 128 0 0 0 128-128v-128a42.666667 42.666667 0 0 0-42.666667-42.666667z" p-id="4669"></path></svg>