<?xml version="1.0" standalone="no"?><!DOCTYPE svg PUBLIC "-//W3C//DTD SVG 1.1//EN" "http://www.w3.org/Graphics/SVG/1.1/DTD/svg11.dtd"><svg t="1577068222304" class="icon" viewBox="0 0 1085 1024" version="1.1" xmlns="http://www.w3.org/2000/svg" p-id="2567" xmlns:xlink="http://www.w3.org/1999/xlink" width="135.625" height="128"><defs><style type="text/css"></style></defs><path d="M1024 843.294118 300.965647 843.294118 0 1023.638588 0 482.153412 0 482.153412 0 92.882824C0 41.592471 41.592471 0 92.912941 0L1024 0C1057.28 0 1084.235294 26.955294 1084.235294 60.235294L1084.235294 783.058824C1084.235294 816.308706 1057.28 843.294118 1024 843.294118ZM1024 60.235294 60.235294 60.235294 60.235294 602.352941 60.114824 903.860706 277.172706 783.058824 1024 783.058824 1024 60.235294ZM210.823529 481.882353C210.823529 465.257412 224.316235 451.764706 240.941176 451.764706L421.647059 451.764706C438.272 451.764706 451.764706 465.257412 451.764706 481.882353 451.764706 498.507294 438.272 512 421.647059 512L240.941176 512C224.316235 512 210.823529 498.507294 210.823529 481.882353ZM210.823529 271.058824C210.823529 254.433882 224.316235 240.941176 240.941176 240.941176L692.705882 240.941176C709.330824 240.941176 722.823529 254.433882 722.823529 271.058824 722.823529 287.683765 709.330824 301.176471 692.705882 301.176471L240.941176 301.176471C224.316235 301.176471 210.823529 287.683765 210.823529 271.058824Z" p-id="2568"></path></svg>