<?xml version="1.0" standalone="no"?><!DOCTYPE svg PUBLIC "-//W3C//DTD SVG 1.1//EN" "http://www.w3.org/Graphics/SVG/1.1/DTD/svg11.dtd"><svg t="1577068562358" class="icon" viewBox="0 0 1552 1024" version="1.1" xmlns="http://www.w3.org/2000/svg" p-id="3169" xmlns:xlink="http://www.w3.org/1999/xlink" width="194" height="128"><defs><style type="text/css"></style></defs><path d="M421.721 102.4l8.192-17.408 13.312 6.144 64-34.816 15.36 71.168 13.312 6.144-8.192 17.408 40.96 188.928-105.984-48.128-119.296 261.632c0 0-24.064-11.264-53.248-24.576s-53.76-24.576-53.76-24.576l120.832-261.12-105.472-48.64 169.984-92.16zM838.489 144.896l22.528 10.24 64-34.816 15.36 71.168 22.528 10.24-13.824 29.696 37.376 172.544-105.472-48.64-240.64 522.752c0 0-23.040-10.752-52.224-24.064-29.184-13.312-52.736-24.064-52.736-24.064l239.616-522.752-105.472-48.128 155.136-84.48 13.824-29.696zM1164.121 421.888l17.408 8.192 67.072-41.984 12.288 78.336 19.456 9.216-11.776 26.112 38.4 177.664-105.472-48.64-140.288 305.664c0 0-23.552-10.752-52.736-24.064s-50.688-23.040-50.688-23.040l138.24-306.688-105.472-48.64 162.816-88.576 10.752-23.552z" p-id="3170"></path></svg>