<?xml version="1.0" standalone="no"?><!DOCTYPE svg PUBLIC "-//W3C//DTD SVG 1.1//EN" "http://www.w3.org/Graphics/SVG/1.1/DTD/svg11.dtd"><svg t="1567737709210" class="icon" viewBox="0 0 1024 1024" version="1.1" xmlns="http://www.w3.org/2000/svg" p-id="2091" xmlns:xlink="http://www.w3.org/1999/xlink" width="200" height="200"><defs><style type="text/css"></style></defs><path d="M106.666667 874.666667V448H64v426.666667a85.333333 85.333333 0 0 0 85.333333 85.333333h448v-42.666667H149.333333a42.666667 42.666667 0 0 1-42.666666-42.666666z m170.666666-469.333334h213.333334V192H277.333333z m42.666667-170.666666h128v128h-128z m-42.666667 490.666666h213.333334V512H277.333333z m42.666667-170.666666h128v128h-128z m256 0h277.333333v-42.666667H576zM896 42.666667H234.666667a85.333333 85.333333 0 0 0-85.333334 85.333333v661.333333a85.333333 85.333333 0 0 0 85.333334 85.333334h661.333333a85.333333 85.333333 0 0 0 85.333333-85.333334V128a85.333333 85.333333 0 0 0-85.333333-85.333333z m42.666667 746.666666a42.666667 42.666667 0 0 1-42.666667 42.666667H234.666667a42.666667 42.666667 0 0 1-42.666667-42.666667V128a42.666667 42.666667 0 0 1 42.666667-42.666667h661.333333a42.666667 42.666667 0 0 1 42.666667 42.666667zM576 234.666667h277.333333V192H576z m0 490.666666h277.333333v-42.666666H576z m0-320h277.333333v-42.666666H576z" p-id="2092"></path></svg>