<?xml version="1.0" standalone="no"?><!DOCTYPE svg PUBLIC "-//W3C//DTD SVG 1.1//EN" "http://www.w3.org/Graphics/SVG/1.1/DTD/svg11.dtd"><svg t="1575962119244" class="icon" viewBox="0 0 1024 1024" version="1.1" xmlns="http://www.w3.org/2000/svg" p-id="3189" xmlns:xlink="http://www.w3.org/1999/xlink" width="128" height="128"><defs><style type="text/css"></style></defs><path d="M512 960c-60.5 0-119.1-11.8-174.4-35.2-53.3-22.6-101.3-54.9-142.4-96s-73.4-89-96-142.4C75.8 631.1 64 572.5 64 512s11.8-119.1 35.2-174.4c22.6-53.3 54.9-101.3 96-142.4s89-73.4 142.4-96C392.9 75.8 451.5 64 512 64s119.1 11.8 174.4 35.2c53.3 22.6 101.3 54.9 142.4 96s73.4 89 96 142.4C948.2 392.9 960 451.5 960 512s-11.8 119.1-35.2 174.4c-22.6 53.3-54.9 101.3-96 142.4s-89 73.4-142.4 96C631.1 948.2 572.5 960 512 960z m0-866C281.5 94 94 281.5 94 512s187.5 418 418 418 418-187.5 418-418S742.5 94 512 94z" p-id="3190"></path><path d="M580.4 949.5c-20.3 0-41-2.8-62-8.3-41.8-11-82.8-32.4-121.9-63.7-79.4-63.5-142.6-160.8-178-274S179.8 374.4 209 277c14.4-48 35.9-88.9 64.1-121.7 29.5-34.5 65-58.3 105.4-71 7.9-2.5 16.3 1.9 18.8 9.8s-1.9 16.3-9.8 18.8c-69.7 21.7-122.8 83.1-149.7 172.7-27.5 91.7-24.2 201.4 9.4 309s93.3 199.7 168 259.5c73.1 58.4 151.7 78.6 221.4 56.8 7.9-2.5 16.3 1.9 18.8 9.8s-1.9 16.3-9.8 18.8c-21.2 6.7-43 10-65.2 10z" p-id="3191"></path><path d="M111 659.3h-2.5c-13.3-0.4-21.4-5.1-24.1-13.8-2.5-7.9 1.9-16.3 9.8-18.8 4.9-1.5 10-0.4 13.8 2.6 6.8 0.5 34.1-0.2 131.4-23.9 77.1-18.8 175.6-46.6 277.3-78.4 101.7-31.8 198.5-64.9 272.6-93.3 93.5-35.8 116.4-50.8 121.7-55.1 1.4-4.6 5-8.4 9.9-10 7.9-2.5 16.3 1.9 18.8 9.8 2.7 8.8-1.3 17.2-12 25.1-5.6 4.1-13.6 8.8-24.5 14.3-20.2 10.2-49.4 22.8-87 37.5-76.7 30-179.9 65.6-290.6 100.2-110.7 34.6-215.8 64-296 82.9-39.3 9.3-70.5 15.5-92.9 18.6-10.6 1.6-19.1 2.3-25.7 2.3z m2-22.8z m798-249.1zM198.4 554.5c-38.1 0-70.9-20.3-95.8-59.5-20.9-33-28.7-67.9-29-69.4-1.8-8.1 3.4-16.1 11.5-17.9 8.1-1.8 16.1 3.4 17.8 11.4 0.1 0.3 7.2 31.8 25.4 60.4 22.5 35.2 51.4 49.8 85.8 43.5 47.5-8.8 76.1-46.2 119.4-102.7 38.9-50.8 87.3-114 168.9-180.8C575.6 179.6 637 142.4 684.9 129c37.9-10.6 55.1-2.8 59.5-0.1 7.1 4.3 9.3 13.6 5 20.6-4.2 6.8-12.9 9.1-19.9 5.4-2.5-1-54.7-17.8-208.1 107.8-78.8 64.6-126 126.3-164 175.8-45.8 59.8-78.9 103.1-137.8 114-7.2 1.4-14.3 2-21.2 2zM729.7 155z m-0.8-0.4z m-0.1 0c0.1 0 0.1 0 0 0 0.1 0 0.1 0 0 0z m0 0zM227 852.9c-5.1 0-10.1-2.6-12.9-7.4-1-1.6-23.5-40.4-7.6-78.7 11.1-26.7 37.3-45.5 77.9-55.7 61.2-15.5 124 1.5 196.7 21.1 63.6 17.2 135.7 36.6 216.1 34.6 65.8-1.7 121.7-19.2 161.6-50.6 30-23.6 40.7-47.1 40.8-47.3 3.3-7.6 12.1-11 19.7-7.7s11.1 12.2 7.8 19.8c-0.5 1.2-13 29.3-48 57.5-20.2 16.2-43.9 29.3-70.4 39-32.8 11.9-70 18.4-110.6 19.5-4.3 0.1-8.6 0.2-12.8 0.2-79.5 0-149.7-18.9-211.9-35.8-68.6-18.5-127.9-34.6-181.5-21-30.9 7.8-50.3 20.7-57.5 38.2-10.1 24.2 5.5 51.7 5.7 51.9 4.2 7.1 1.9 16.3-5.3 20.6-2.6 1.2-5.2 1.8-7.8 1.8z" p-id="3192"></path></svg>