<?xml version="1.0" standalone="no"?><!DOCTYPE svg PUBLIC "-//W3C//DTD SVG 1.1//EN" "http://www.w3.org/Graphics/SVG/1.1/DTD/svg11.dtd"><svg t="1571214121562" class="icon" viewBox="0 0 1024 1024" version="1.1" xmlns="http://www.w3.org/2000/svg" p-id="2866" xmlns:xlink="http://www.w3.org/1999/xlink" width="128" height="128"><defs><style type="text/css"></style></defs><path d="M511.869017 898.848629c-220.729194 0-411.299507-164.019611-444.071911-381.818055-2.614547-10.278087-3.831258-19.383466-3.831258-28.467355l0.541329-6.919597c2.569522-61.194734 54.004985-110.600981 116.979248-110.600981 15.799848 0 31.149441 3.088338 45.642526 9.218966l3.110851 1.465374c15.57472 7.866155 32.276101 15.372106 49.248657 22.134113 148.354839 59.279105 316.340785 59.346643 464.763163 0.315178 10.864442-4.305049 21.772886-9.015328 32.592302-14.041808l13.951757-6.739495c15.957437-7.686053 33.110095-11.584849 50.939159-11.584849 63.989383 0 116.66407 52.088332 117.430526 116.122741l0.022513 1.261737-0.090051 1.330298c0 0-0.608867 9.871835-2.749624 23.463388C925.175227 733.183542 734.062562 898.848629 511.869017 898.848629zM133.251863 489.982544c0.135076 3.155876 0.766456 6.762007 1.960655 11.202133l0.811482 3.922333c27.024493 185.003528 188.587146 324.500629 375.845017 324.500629 187.934277 0 349.58698-140.082432 376.002606-325.852416 1.216711-7.776104 1.803066-13.749142 2.028193-16.318664-1.014096-25.695219-22.35924-46.38647-48.167023-46.38647-6.626931 0-12.982686 1.284249-18.955724 3.853771l-1.645476 0.811482c-16.905018 8.339946-34.170241 16.003486-51.321876 22.809495-164.786067 65.544809-351.277482 65.409732-515.994987-0.360204-18.640546-7.438413-37.009915-15.687284-54.590316-24.52251-5.635347-2.231831-11.607362-3.358491-17.739013-3.358491-25.78527 0-46.836725 20.308535-47.941895 46.228881L133.251863 489.982544z" p-id="2867"></path><path d="M512.252757 395.812791c-68.9033 0-137.445372-10.458189-203.711612-31.104415l-3.561106-1.081635c-3.065825-0.924045-6.130627-1.870604-9.17394-2.8847l-3.335978-1.397836c-20.149922-10.480702-32.682353-30.969339-32.682353-53.486168 0-4.327562 0.496304-8.767688 1.487887-13.140275l1.307785-3.989871c2.299369-5.386684 4.77884-10.660804 7.438413-15.844873 46.679136-91.622744 139.361001-148.579967 241.848187-148.579967 104.875582 0 201.434755 61.464887 245.995647 156.626223l0.969071 2.231831c2.929726 7.2798 4.417613 14.875802 4.417613 22.584368 0 24.252357-14.425547 46.070268-36.739762 55.559387-3.381004 1.442862-6.852058 2.569522-10.368138 3.358491C649.833205 385.332089 581.246107 395.812791 512.252757 395.812791zM312.50748 317.646524c1.915629 0.608867 3.853771 1.194198 5.815449 1.780553l3.876284 1.171686c124.170021 38.72293 257.265318 38.542828 381.186675-0.315178l2.411933-0.608867c0.856507-0.180102 1.735527-0.451278 2.63706-0.833995 5.251607-2.254344 8.655124-7.370875 8.655124-13.095249 0-1.735527-0.337691-3.493567-1.036609-5.229095l-0.382717-0.924045c-36.603663-78.076216-116.754121-129.127939-203.801662-129.127939-85.040838 0-161.967882 47.288003-200.75835 123.426077-1.803066 3.51608-3.493567 7.077186-5.094018 10.683317-0.045025 0.451278-0.067538 0.856507-0.067538 1.284249C305.949111 311.403333 309.1275 315.437206 312.50748 317.646524z" p-id="2868"></path><path d="M653.079132 309.87042c-5.454222 0-10.3006-3.876284-11.314697-9.444093-6.581905-35.477003-51.66059-74.898851-94.057189-70.571289-6.175653 0.698918-12.013615-3.944845-12.667507-10.278087-0.653893-6.333242 3.944845-12.013615 10.278087-12.667507 56.867172-6.130627 110.578468 43.208081 119.121028 89.323375 1.171686 6.265704-2.974751 12.283768-9.241478 13.433964C654.498458 309.802882 653.777027 309.87042 653.079132 309.87042z" p-id="2869"></path></svg>