<?xml version="1.0" standalone="no"?><!DOCTYPE svg PUBLIC "-//W3C//DTD SVG 1.1//EN" "http://www.w3.org/Graphics/SVG/1.1/DTD/svg11.dtd"><svg t="1567738110031" class="icon" viewBox="0 0 1024 1024" version="1.1" xmlns="http://www.w3.org/2000/svg" p-id="3956" width="128" height="128" xmlns:xlink="http://www.w3.org/1999/xlink"><defs><style type="text/css"></style></defs><path d="M968 992 56 992c-13.248 0-24-10.688-24-24 0-13.312 10.752-24 24-24l912 0c13.248 0 24 10.752 24 24C992 981.312 981.312 992 968 992z" p-id="3957"></path><path d="M176 560 128 560c-26.496 0-48 21.504-48 48l0 240C80 874.56 101.504 896 128 896l48 0c26.496 0 48-21.504 48-48L224 608C224 581.504 202.496 560 176 560zM128 848 128 608l48 0 0 240L128 848z" p-id="3958"></path><path d="M416 272 368 272C341.504 272 320 293.504 320 320l0 528C320 874.56 341.504 896 368 896L416 896c26.496 0 48-21.504 48-48L464 320C464 293.504 442.496 272 416 272zM368 848 368 320 416 320l0 528L368 848z" p-id="3959"></path><path d="M656 368 608 368c-26.56 0-48 21.44-48 48l0 432C560 874.56 581.504 896 608 896l48 0c26.496 0 48-21.504 48-48L704 416C704 389.44 682.56 368 656 368zM608 848 608 416l48 0 0 432L608 848z" p-id="3960"></path><path d="M896 32l-48 0c-26.496 0-48 21.504-48 48l0 768c0 26.496 21.504 48 48 48L896 896c26.496 0 48-21.504 48-48l0-768C944 53.504 922.56 32 896 32zM848 848l0-768L896 80l0 768L848 848z" p-id="3961"></path></svg>