<?xml version="1.0" standalone="no"?><!DOCTYPE svg PUBLIC "-//W3C//DTD SVG 1.1//EN" "http://www.w3.org/Graphics/SVG/1.1/DTD/svg11.dtd"><svg t="1567738510361" class="icon" viewBox="0 0 1024 1024" version="1.1" xmlns="http://www.w3.org/2000/svg" p-id="5603" xmlns:xlink="http://www.w3.org/1999/xlink" width="128" height="128"><defs><style type="text/css"></style></defs><path d="M810.666667 128l-42.666667 0 0-85.333333-85.333333 0 0 85.333333-341.333333 0 0-85.333333-85.333333 0 0 85.333333-42.666667 0c-47.146667 0-84.906667 38.186667-84.906667 85.333333l-0.426667 597.333333c0 47.146667 38.186667 85.333333 85.333333 85.333333l597.333333 0c47.146667 0 85.333333-38.186667 85.333333-85.333333l0-597.333333c0-47.146667-38.186667-85.333333-85.333333-85.333333zM810.666667 810.666667l-597.333333 0 0-469.333333 597.333333 0 0 469.333333zM298.666667 426.666667l213.333333 0 0 213.333333-213.333333 0z" p-id="5604"></path></svg>