<?xml version="1.0" standalone="no"?><!DOCTYPE svg PUBLIC "-//W3C//DTD SVG 1.1//EN" "http://www.w3.org/Graphics/SVG/1.1/DTD/svg11.dtd"><svg t="1576824588683" class="icon" viewBox="0 0 1024 1024" version="1.1" xmlns="http://www.w3.org/2000/svg" p-id="7436" xmlns:xlink="http://www.w3.org/1999/xlink" width="128" height="128"><defs><style type="text/css"></style></defs><path d="M905.309091 688.872727c-13.963636 0-25.6 11.636364-25.6 25.6v132.654546c0 27.927273-23.272727 51.2-51.2 51.2H104.727273c-27.927273 0-51.2-23.272727-51.2-51.2V176.872727c0-27.927273 23.272727-51.2 51.2-51.2h723.781818c27.927273 0 51.2 23.272727 51.2 51.2v139.636364c0 13.963636 11.636364 25.6 25.6 25.6 13.963636 0 25.6-11.636364 25.6-25.6V172.218182c0-53.527273-44.218182-97.745455-97.745455-97.745455H97.745455C44.218182 72.145455 0 116.363636 0 172.218182v679.563636c0 53.527273 44.218182 97.745455 97.745455 97.745455h735.418181c53.527273 0 97.745455-44.218182 97.745455-97.745455v-137.309091c2.327273-13.963636-9.309091-25.6-25.6-25.6z m20.945454-309.527272H546.909091c-51.2 0-93.090909 39.563636-97.745455 88.436363v86.109091c0 53.527273 44.218182 97.745455 97.745455 97.745455h379.345454c53.527273 0 97.745455-44.218182 97.745455-97.745455v-76.8c0-53.527273-44.218182-97.745455-97.745455-97.745454z m46.545455 169.890909c0 27.927273-23.272727 51.2-51.2 51.2H553.890909c-27.927273 0-51.2-23.272727-51.2-51.2v-67.490909c0-27.927273 23.272727-51.2 51.2-51.2h367.709091c27.927273 0 51.2 23.272727 51.2 51.2v67.490909z m-81.454545-65.163637c-18.618182 0-32.581818 13.963636-32.581819 32.581818 0 18.618182 13.963636 32.581818 32.581819 32.581819 18.618182 0 32.581818-13.963636 32.581818-32.581819-2.327273-18.618182-16.290909-32.581818-32.581818-32.581818z" p-id="7437"></path></svg>