<?xml version="1.0" standalone="no"?><!DOCTYPE svg PUBLIC "-//W3C//DTD SVG 1.1//EN" "http://www.w3.org/Graphics/SVG/1.1/DTD/svg11.dtd"><svg t="1576824650580" class="icon" viewBox="0 0 1024 1024" version="1.1" xmlns="http://www.w3.org/2000/svg" p-id="8211" xmlns:xlink="http://www.w3.org/1999/xlink" width="128" height="128"><defs><style type="text/css"></style></defs><path d="M706.122 312.411c-3.674-30.973-20.976-48.274-51.948-51.948-18.242 1.837-31.912 9.143-41.012 21.873L512 427.243 410.838 282.335c-9.142-12.73-22.813-20.036-41.011-21.873-31.015 3.674-48.317 20.976-51.948 51.948 0 10.937 3.631 20.976 10.937 30.075l87.491 123.034H358.89c-20.078 1.837-31.015 11.877-32.809 30.076 1.794 18.242 12.731 28.281 32.809 30.075h101.163v46.48H358.89c-20.078 1.837-31.015 11.876-32.809 30.075 1.794 18.24 12.731 28.281 32.809 30.075h101.163v84.757c1.794 31.016 19.138 46.48 51.947 46.48s50.111-15.465 51.949-46.48V632.3H665.11c20.036-1.794 30.973-11.835 32.809-30.075-1.836-18.199-12.772-28.238-32.809-30.075H563.949v-46.48H665.11c20.036-1.794 30.973-11.833 32.809-30.075-1.836-18.199-12.772-28.239-32.809-30.076h-57.417l87.492-123.034c7.263-9.099 10.937-19.138 10.937-30.074z" p-id="8212"></path><path d="M512.001 1023.994c-69.102 0-136.156-13.543-199.304-40.251-60.972-25.79-115.723-62.7-162.73-109.708S66.049 772.277 40.259 711.305C13.551 648.158 0.008 581.103 0.008 512.002c0-69.102 13.543-136.156 40.251-199.304 25.79-60.973 62.7-115.724 109.708-162.731 47.008-47.007 101.759-83.918 162.73-109.708C375.845 13.551 442.899 0.008 512.001 0.008c60.157 0 119.089 10.35 175.157 30.762 20.759 7.558 31.46 30.513 23.903 51.271-7.558 20.76-30.513 31.46-51.271 23.903-47.271-17.21-96.995-25.936-147.79-25.936-238.202 0-431.993 193.792-431.993 431.994 0 238.201 193.791 431.992 431.993 431.992s431.993-193.791 431.993-431.992c0-50.797-8.726-100.521-25.935-147.791-7.557-20.759 3.145-43.713 23.903-51.271 20.759-7.557 43.714 3.145 51.271 23.903 20.411 56.067 30.761 114.999 30.761 175.158 0 69.101-13.543 136.156-40.251 199.303-25.79 60.973-62.7 115.723-109.708 162.73s-101.759 83.918-162.73 109.708c-63.147 26.709-130.201 40.252-199.303 40.252z" p-id="8213"></path><path d="M953.78 155.252H727.01c-15.655 0-28.347 12.691-28.347 28.346s12.691 28.347 28.347 28.347H953.78c15.656 0 28.348-12.692 28.348-28.347 0-15.655-12.691-28.346-28.348-28.346z" p-id="8214"></path></svg>